<?xml version="1.0" standalone="no"?>
<!DOCTYPE svg PUBLIC "-//W3C//DTD SVG 20010904//EN"
 "http://www.w3.org/TR/2001/REC-SVG-20010904/DTD/svg10.dtd">
<svg version="1.0" xmlns="http://www.w3.org/2000/svg"
 width="443.000000pt" height="443.000000pt" viewBox="0 0 443.000000 443.000000"
 preserveAspectRatio="xMidYMid meet">
<metadata>
Created by potrace 1.14, written by Peter Selinger 2001-2017
</metadata>
<g transform="translate(0.000000,443.000000) scale(0.100000,-0.100000)"
fill="#000000" stroke="none">
<path d="M2545 4409 c-126 -13 -169 -20 -220 -35 -58 -17 -162 -58 -172 -68
-3 -3 -15 -6 -25 -6 -10 0 -18 -4 -18 -10 0 -5 -6 -10 -13 -10 -19 0 -167
-152 -167 -171 0 -8 -23 -10 -82 -5 -96 8 -349 -8 -378 -24 -11 -6 -27 -25
-36 -42 -14 -28 -14 -34 1 -73 9 -24 32 -57 52 -74 20 -17 34 -33 31 -36 -9
-10 -121 -25 -183 -25 -203 -2 -267 -102 -143 -223 15 -15 28 -30 28 -33 0 -6
-55 -2 -190 15 -208 25 -430 43 -708 57 -100 5 -139 3 -157 -6 -69 -37 -25
-93 120 -150 11 -4 41 -17 67 -29 26 -12 50 -21 53 -21 2 0 28 -11 57 -23 29
-13 69 -30 88 -37 19 -7 39 -17 44 -22 6 -4 16 -8 23 -8 8 0 33 -9 55 -20 23
-11 50 -20 60 -20 10 0 18 -4 18 -9 0 -5 12 -11 27 -14 16 -2 53 -15 83 -27
30 -12 98 -35 150 -52 52 -16 103 -34 112 -39 10 -5 31 -9 48 -9 30 0 32 -3
35 -50 5 -73 30 -159 62 -212 49 -80 191 -200 237 -200 20 0 28 -8 37 -37 7
-20 17 -39 23 -43 12 -8 14 -362 2 -428 -36 -213 -45 -298 -36 -348 9 -52 23
-86 44 -108 6 -6 18 -21 26 -33 8 -11 20 -21 26 -21 7 0 14 -6 17 -13 9 -23
97 -59 158 -64 61 -6 189 20 189 38 0 5 7 9 15 9 9 0 18 7 21 15 4 8 18 15 34
15 15 0 40 6 55 14 34 18 104 96 105 116 0 8 6 27 14 41 7 14 16 37 19 50 11
42 67 98 151 150 96 59 94 61 95 -88 1 -133 -14 -238 -51 -343 -16 -47 -32
-95 -35 -107 -3 -13 -9 -23 -14 -23 -5 0 -9 -5 -9 -10 0 -6 -22 -58 -50 -116
-27 -58 -50 -109 -50 -114 0 -9 -6 -18 -52 -72 -10 -12 -18 -24 -18 -28 0 -4
-9 -17 -20 -30 -11 -13 -20 -29 -20 -37 0 -7 -4 -13 -9 -13 -13 0 -59 -115
-81 -205 -11 -46 -20 -114 -20 -162 0 -55 -6 -100 -19 -135 -30 -86 -54 -211
-48 -258 8 -81 29 -170 39 -170 5 0 7 -4 4 -9 -4 -5 -3 -11 2 -13 4 -1 18 -18
31 -36 12 -18 36 -39 53 -48 59 -31 88 19 88 154 0 19 7 48 16 65 31 58 34 67
34 82 0 9 7 18 15 21 8 3 17 15 21 26 20 65 160 221 222 249 18 8 32 17 32 21
0 5 6 8 14 8 8 0 21 6 28 13 21 19 56 37 73 37 8 0 15 4 15 9 0 5 8 11 18 14
9 4 36 18 60 32 23 14 49 25 57 25 8 0 15 4 15 8 0 12 112 62 138 62 12 0 22
5 22 10 0 6 13 10 29 10 17 0 32 4 35 9 3 5 23 11 43 15 21 3 65 10 98 16 33
5 113 16 178 25 65 8 126 16 135 19 31 9 76 16 169 25 50 5 108 16 127 25 20
9 51 23 70 31 19 8 39 15 46 15 17 0 68 31 104 63 17 15 39 30 48 33 10 3 18
12 18 19 0 8 16 27 35 42 19 15 35 33 35 39 0 5 14 24 30 41 17 18 42 63 57
105 48 129 36 282 -32 413 -30 58 -70 118 -89 134 -10 9 -16 29 -16 56 0 23
-5 57 -11 75 -7 18 -8 35 -3 39 25 18 104 214 104 259 0 12 5 22 10 22 12 0
14 293 1 318 -4 9 -18 49 -31 87 -32 97 -112 245 -144 267 -6 4 -6 27 1 67 12
62 0 195 -18 216 -5 5 -9 19 -9 31 0 42 -133 294 -189 359 -9 11 -26 34 -36
50 -10 17 -31 44 -46 60 -15 17 -54 59 -85 95 -106 118 -268 270 -291 270 -7
0 -28 9 -48 20 -20 11 -42 20 -50 20 -8 0 -15 5 -15 10 0 6 -7 10 -16 10 -8 0
-39 11 -67 24 -29 12 -72 29 -97 36 -25 8 -49 17 -54 22 -6 4 -27 8 -47 8 -21
0 -41 5 -44 10 -3 6 -32 10 -63 10 -31 0 -73 4 -92 9 -54 14 -158 19 -235 10z"/>
</g>
</svg>
